<svg xmlns="http://www.w3.org/2000/svg" viewBox="0 0 480 120">
  <g transform="translate(0 0)">
    <circle cx="36" cy="64" r="12" fill="#8a4a35" stroke="#4b2a20" stroke-width="4"/>
    <circle cx="60" cy="62" r="14" fill="#9d5b3d" stroke="#4b2a20" stroke-width="4"/>
    <ellipse cx="88" cy="64" rx="18" ry="14" fill="#b46b45" stroke="#4b2a20" stroke-width="4"/>
    <path d="M48 72 L34 88 M64 74 L62 92 M78 72 L92 88 M48 52 L34 38 M64 50 L61 32 M78 52 L93 38" stroke="#4b2a20" stroke-width="4" stroke-linecap="round"/>
    <path d="M24 58 Q14 52 8 60 M24 64 Q13 68 8 60" stroke="#4b2a20" stroke-width="3" fill="none" stroke-linecap="round"/>
  </g>
  <g transform="translate(120 0)">
    <circle cx="36" cy="64" r="12" fill="#8a4a35" stroke="#4b2a20" stroke-width="4"/>
    <circle cx="60" cy="62" r="14" fill="#9d5b3d" stroke="#4b2a20" stroke-width="4"/>
    <ellipse cx="88" cy="64" rx="18" ry="14" fill="#b46b45" stroke="#4b2a20" stroke-width="4"/>
    <path d="M48 73 L30 86 M64 74 L70 92 M78 71 L98 84 M48 51 L32 42 M64 50 L58 32 M78 53 L96 42" stroke="#4b2a20" stroke-width="4" stroke-linecap="round"/>
    <path d="M24 58 Q12 48 6 54 M24 64 Q14 72 8 66" stroke="#4b2a20" stroke-width="3" fill="none" stroke-linecap="round"/>
  </g>
  <g transform="translate(240 0)">
    <circle cx="36" cy="64" r="12" fill="#8a4a35" stroke="#4b2a20" stroke-width="4"/>
    <circle cx="60" cy="62" r="14" fill="#9d5b3d" stroke="#4b2a20" stroke-width="4"/>
    <ellipse cx="88" cy="64" rx="18" ry="14" fill="#b46b45" stroke="#4b2a20" stroke-width="4"/>
    <path d="M48 71 L34 84 M64 74 L58 90 M78 73 L94 90 M48 53 L34 40 M64 50 L68 34 M78 51 L96 36" stroke="#4b2a20" stroke-width="4" stroke-linecap="round"/>
    <path d="M24 58 Q14 54 8 60 M24 64 Q13 66 8 72" stroke="#4b2a20" stroke-width="3" fill="none" stroke-linecap="round"/>
  </g>
  <g transform="translate(360 0)">
    <circle cx="36" cy="64" r="12" fill="#8a4a35" stroke="#4b2a20" stroke-width="4"/>
    <circle cx="60" cy="62" r="14" fill="#9d5b3d" stroke="#4b2a20" stroke-width="4"/>
    <ellipse cx="88" cy="64" rx="18" ry="14" fill="#b46b45" stroke="#4b2a20" stroke-width="4"/>
    <path d="M48 73 L36 88 M64 74 L63 92 M78 71 L96 86 M48 51 L34 36 M64 50 L60 32 M78 53 L94 40" stroke="#4b2a20" stroke-width="4" stroke-linecap="round"/>
    <path d="M24 58 Q12 50 6 58 M24 64 Q12 70 6 64" stroke="#4b2a20" stroke-width="3" fill="none" stroke-linecap="round"/>
  </g>
</svg>
