<svg xmlns="http://www.w3.org/2000/svg" viewBox="0 0 480 120">
  <g transform="translate(0 0)">
    <ellipse cx="55" cy="44" rx="22" ry="16" fill="#d9f6ff" stroke="#5693a8" stroke-width="4" opacity=".88"/>
    <ellipse cx="83" cy="44" rx="22" ry="16" fill="#d9f6ff" stroke="#5693a8" stroke-width="4" opacity=".88"/>
    <ellipse cx="74" cy="74" rx="32" ry="20" fill="#ffd84d" stroke="#4d3b26" stroke-width="6"/>
    <path d="M58 60 C54 70 54 83 58 93 M74 56 C71 69 71 84 74 96 M90 60 C95 72 95 83 90 93" fill="none" stroke="#4d3b26" stroke-width="6"/>
    <circle cx="42" cy="74" r="15" fill="#5a3d2b"/>
    <circle cx="37" cy="69" r="3.5" fill="#fff"/>
    <circle cx="46" cy="68" r="3.5" fill="#fff"/>
    <path d="M104 75 L116 68 L113 82 Z" fill="#4d3b26"/>
    <path d="M33 57 C22 45 25 37 33 31 M47 56 C53 42 61 39 70 43" fill="none" stroke="#5a3d2b" stroke-width="4" stroke-linecap="round"/>
  </g>
  <g transform="translate(120 0)">
    <ellipse cx="49" cy="39" rx="24" ry="11" fill="#d9f6ff" stroke="#5693a8" stroke-width="4" opacity=".88"/>
    <ellipse cx="89" cy="39" rx="24" ry="11" fill="#d9f6ff" stroke="#5693a8" stroke-width="4" opacity=".88"/>
    <ellipse cx="74" cy="74" rx="32" ry="20" fill="#ffd84d" stroke="#4d3b26" stroke-width="6"/>
    <path d="M58 60 C54 70 54 83 58 93 M74 56 C71 69 71 84 74 96 M90 60 C95 72 95 83 90 93" fill="none" stroke="#4d3b26" stroke-width="6"/>
    <circle cx="42" cy="74" r="15" fill="#5a3d2b"/>
    <circle cx="37" cy="69" r="3.5" fill="#fff"/>
    <circle cx="46" cy="68" r="3.5" fill="#fff"/>
    <path d="M104 75 L116 68 L113 82 Z" fill="#4d3b26"/>
    <path d="M33 57 C22 45 25 37 33 31 M47 56 C53 42 61 39 70 43" fill="none" stroke="#5a3d2b" stroke-width="4" stroke-linecap="round"/>
  </g>
  <g transform="translate(240 0)">
    <ellipse cx="55" cy="47" rx="18" ry="19" fill="#d9f6ff" stroke="#5693a8" stroke-width="4" opacity=".88"/>
    <ellipse cx="83" cy="47" rx="18" ry="19" fill="#d9f6ff" stroke="#5693a8" stroke-width="4" opacity=".88"/>
    <ellipse cx="74" cy="74" rx="32" ry="20" fill="#ffd84d" stroke="#4d3b26" stroke-width="6"/>
    <path d="M58 60 C54 70 54 83 58 93 M74 56 C71 69 71 84 74 96 M90 60 C95 72 95 83 90 93" fill="none" stroke="#4d3b26" stroke-width="6"/>
    <circle cx="42" cy="74" r="15" fill="#5a3d2b"/>
    <circle cx="37" cy="69" r="3.5" fill="#fff"/>
    <circle cx="46" cy="68" r="3.5" fill="#fff"/>
    <path d="M104 75 L116 68 L113 82 Z" fill="#4d3b26"/>
    <path d="M33 57 C22 45 25 37 33 31 M47 56 C53 42 61 39 70 43" fill="none" stroke="#5a3d2b" stroke-width="4" stroke-linecap="round"/>
  </g>
  <g transform="translate(360 0)">
    <ellipse cx="49" cy="39" rx="24" ry="11" fill="#d9f6ff" stroke="#5693a8" stroke-width="4" opacity=".88"/>
    <ellipse cx="89" cy="39" rx="24" ry="11" fill="#d9f6ff" stroke="#5693a8" stroke-width="4" opacity=".88"/>
    <ellipse cx="74" cy="74" rx="32" ry="20" fill="#ffd84d" stroke="#4d3b26" stroke-width="6"/>
    <path d="M58 60 C54 70 54 83 58 93 M74 56 C71 69 71 84 74 96 M90 60 C95 72 95 83 90 93" fill="none" stroke="#4d3b26" stroke-width="6"/>
    <circle cx="42" cy="74" r="15" fill="#5a3d2b"/>
    <circle cx="37" cy="69" r="3.5" fill="#fff"/>
    <circle cx="46" cy="68" r="3.5" fill="#fff"/>
    <path d="M104 75 L116 68 L113 82 Z" fill="#4d3b26"/>
    <path d="M33 57 C22 45 25 37 33 31 M47 56 C53 42 61 39 70 43" fill="none" stroke="#5a3d2b" stroke-width="4" stroke-linecap="round"/>
  </g>
</svg>
