<svg xmlns="http://www.w3.org/2000/svg" viewBox="0 0 480 120">
  <g transform="translate(0 0)"><ellipse cx="60" cy="73" rx="28" ry="23" fill="#7f67d8" stroke="#392a63" stroke-width="6"/><path d="M60 50 L60 95" stroke="#392a63" stroke-width="5" stroke-linecap="round"/><circle cx="60" cy="45" r="14" fill="#4a3688"/><circle cx="55" cy="41" r="3" fill="#fff"/><circle cx="65" cy="41" r="3" fill="#fff"/><path d="M40 74 H22 M80 74 H98 M45 89 H28 M75 89 H92" stroke="#392a63" stroke-width="5" stroke-linecap="round"/></g>
  <g transform="translate(120 0)"><ellipse cx="60" cy="73" rx="28" ry="23" fill="#7f67d8" stroke="#392a63" stroke-width="6"/><path d="M60 50 L60 95" stroke="#392a63" stroke-width="5" stroke-linecap="round"/><circle cx="60" cy="45" r="14" fill="#4a3688"/><circle cx="55" cy="41" r="3" fill="#fff"/><circle cx="65" cy="41" r="3" fill="#fff"/><path d="M38 72 L22 64 M82 72 L98 64 M44 90 L30 98 M76 90 L90 98" stroke="#392a63" stroke-width="5" stroke-linecap="round"/></g>
  <g transform="translate(240 0)"><ellipse cx="60" cy="73" rx="28" ry="23" fill="#7f67d8" stroke="#392a63" stroke-width="6"/><path d="M60 50 L60 95" stroke="#392a63" stroke-width="5" stroke-linecap="round"/><circle cx="60" cy="45" r="14" fill="#4a3688"/><circle cx="55" cy="41" r="3" fill="#fff"/><circle cx="65" cy="41" r="3" fill="#fff"/><path d="M38 76 L22 84 M82 76 L98 84 M44 90 L30 82 M76 90 L90 82" stroke="#392a63" stroke-width="5" stroke-linecap="round"/></g>
  <g transform="translate(360 0)"><ellipse cx="60" cy="73" rx="28" ry="23" fill="#7f67d8" stroke="#392a63" stroke-width="6"/><path d="M60 50 L60 95" stroke="#392a63" stroke-width="5" stroke-linecap="round"/><circle cx="60" cy="45" r="14" fill="#4a3688"/><circle cx="55" cy="41" r="3" fill="#fff"/><circle cx="65" cy="41" r="3" fill="#fff"/><path d="M40 74 H22 M80 74 H98 M45 89 H28 M75 89 H92" stroke="#392a63" stroke-width="5" stroke-linecap="round"/></g>
</svg>
