<svg xmlns="http://www.w3.org/2000/svg" viewBox="0 0 480 120">
  <g transform="translate(0 0)">
    <ellipse cx="40" cy="46" rx="18" ry="30" fill="#ff8fc8" stroke="#6d3a72" stroke-width="4"/>
    <ellipse cx="80" cy="46" rx="18" ry="30" fill="#82c7ff" stroke="#315d8f" stroke-width="4"/>
    <ellipse cx="46" cy="76" rx="15" ry="22" fill="#ffd65f" stroke="#86682a" stroke-width="4"/>
    <ellipse cx="74" cy="76" rx="15" ry="22" fill="#9eea83" stroke="#40783e" stroke-width="4"/>
    <ellipse cx="60" cy="58" rx="8" ry="35" fill="#69508f"/>
    <circle cx="60" cy="24" r="11" fill="#69508f"/>
    <path d="M56 19 L49 7 M64 19 L71 7" stroke="#69508f" stroke-width="3.5" stroke-linecap="round"/>
  </g>
  <g transform="translate(120 0)">
    <ellipse cx="34" cy="54" rx="26" ry="16" fill="#ff8fc8" stroke="#6d3a72" stroke-width="4"/>
    <ellipse cx="86" cy="54" rx="26" ry="16" fill="#82c7ff" stroke="#315d8f" stroke-width="4"/>
    <ellipse cx="42" cy="79" rx="21" ry="13" fill="#ffd65f" stroke="#86682a" stroke-width="4"/>
    <ellipse cx="78" cy="79" rx="21" ry="13" fill="#9eea83" stroke="#40783e" stroke-width="4"/>
    <ellipse cx="60" cy="58" rx="8" ry="35" fill="#69508f"/>
    <circle cx="60" cy="24" r="11" fill="#69508f"/>
    <path d="M56 19 L49 7 M64 19 L71 7" stroke="#69508f" stroke-width="3.5" stroke-linecap="round"/>
  </g>
  <g transform="translate(240 0)">
    <ellipse cx="44" cy="43" rx="23" ry="28" fill="#ff8fc8" stroke="#6d3a72" stroke-width="4"/>
    <ellipse cx="76" cy="43" rx="23" ry="28" fill="#82c7ff" stroke="#315d8f" stroke-width="4"/>
    <ellipse cx="48" cy="74" rx="18" ry="20" fill="#ffd65f" stroke="#86682a" stroke-width="4"/>
    <ellipse cx="72" cy="74" rx="18" ry="20" fill="#9eea83" stroke="#40783e" stroke-width="4"/>
    <ellipse cx="60" cy="58" rx="8" ry="35" fill="#69508f"/>
    <circle cx="60" cy="24" r="11" fill="#69508f"/>
    <path d="M56 19 L49 7 M64 19 L71 7" stroke="#69508f" stroke-width="3.5" stroke-linecap="round"/>
  </g>
  <g transform="translate(360 0)">
    <ellipse cx="34" cy="54" rx="26" ry="16" fill="#ff8fc8" stroke="#6d3a72" stroke-width="4"/>
    <ellipse cx="86" cy="54" rx="26" ry="16" fill="#82c7ff" stroke="#315d8f" stroke-width="4"/>
    <ellipse cx="42" cy="79" rx="21" ry="13" fill="#ffd65f" stroke="#86682a" stroke-width="4"/>
    <ellipse cx="78" cy="79" rx="21" ry="13" fill="#9eea83" stroke="#40783e" stroke-width="4"/>
    <ellipse cx="60" cy="58" rx="8" ry="35" fill="#69508f"/>
    <circle cx="60" cy="24" r="11" fill="#69508f"/>
    <path d="M56 19 L49 7 M64 19 L71 7" stroke="#69508f" stroke-width="3.5" stroke-linecap="round"/>
  </g>
</svg>
