<svg xmlns="http://www.w3.org/2000/svg" viewBox="0 0 640 120">
  <g transform="translate(0 0)"><ellipse cx="76" cy="80" rx="27" ry="22" fill="#ffbd82" stroke="#7a5332" stroke-width="5"/><circle cx="57" cy="61" r="15" fill="#ffbd82" stroke="#7a5332" stroke-width="5"/><path d="M46 51 L52 34 L61 49 Z M64 49 L72 33 L76 52 Z" fill="#ffbd82" stroke="#7a5332" stroke-width="4" stroke-linejoin="round"/><circle cx="54" cy="59" r="3" fill="#fff"/><circle cx="63" cy="59" r="3" fill="#fff"/><circle cx="55" cy="60" r="1.5" fill="#2c3136"/><circle cx="64" cy="60" r="1.5" fill="#2c3136"/><path d="M58 69 L68 69" stroke="#2c3136" stroke-width="3"/><path d="M44 70 H30 M44 76 H26 M70 70 H84 M70 76 H88" stroke="#7a5332" stroke-width="3.5" stroke-linecap="round"/><path d="M99 83 C112 78 115 64 108 54" fill="none" stroke="#7a5332" stroke-width="4" stroke-linecap="round"/></g>
  <g transform="translate(160 0)"><ellipse cx="76" cy="78" rx="27" ry="22" fill="#ffbd82" stroke="#7a5332" stroke-width="5"/><circle cx="57" cy="59" r="15" fill="#ffbd82" stroke="#7a5332" stroke-width="5"/><path d="M46 49 L52 32 L61 47 Z M64 47 L72 31 L76 50 Z" fill="#ffbd82" stroke="#7a5332" stroke-width="4" stroke-linejoin="round"/><circle cx="54" cy="57" r="3" fill="#fff"/><circle cx="63" cy="57" r="3" fill="#fff"/><circle cx="55" cy="58" r="1.5" fill="#2c3136"/><circle cx="64" cy="58" r="1.5" fill="#2c3136"/><path d="M58 67 L68 67" stroke="#2c3136" stroke-width="3"/><path d="M44 68 H30 M44 74 H26 M70 68 H84 M70 74 H88" stroke="#7a5332" stroke-width="3.5" stroke-linecap="round"/><path d="M100 82 C115 88 119 72 113 61" fill="none" stroke="#7a5332" stroke-width="4" stroke-linecap="round"/></g>
  <g transform="translate(320 0)"><ellipse cx="76" cy="81" rx="27" ry="22" fill="#ffbd82" stroke="#7a5332" stroke-width="5"/><circle cx="57" cy="62" r="15" fill="#ffbd82" stroke="#7a5332" stroke-width="5"/><path d="M46 52 L52 35 L61 50 Z M64 50 L72 34 L76 53 Z" fill="#ffbd82" stroke="#7a5332" stroke-width="4" stroke-linejoin="round"/><circle cx="54" cy="60" r="3" fill="#fff"/><circle cx="63" cy="60" r="3" fill="#fff"/><circle cx="55" cy="61" r="1.5" fill="#2c3136"/><circle cx="64" cy="61" r="1.5" fill="#2c3136"/><path d="M58 70 L68 70" stroke="#2c3136" stroke-width="3"/><path d="M44 71 H30 M44 77 H26 M70 71 H84 M70 77 H88" stroke="#7a5332" stroke-width="3.5" stroke-linecap="round"/><path d="M99 83 C111 80 117 68 114 58" fill="none" stroke="#7a5332" stroke-width="4" stroke-linecap="round"/></g>
  <g transform="translate(480 0)"><ellipse cx="76" cy="78" rx="27" ry="22" fill="#ffbd82" stroke="#7a5332" stroke-width="5"/><circle cx="57" cy="59" r="15" fill="#ffbd82" stroke="#7a5332" stroke-width="5"/><path d="M46 49 L52 32 L61 47 Z M64 47 L72 31 L76 50 Z" fill="#ffbd82" stroke="#7a5332" stroke-width="4" stroke-linejoin="round"/><circle cx="54" cy="57" r="3" fill="#fff"/><circle cx="63" cy="57" r="3" fill="#fff"/><circle cx="55" cy="58" r="1.5" fill="#2c3136"/><circle cx="64" cy="58" r="1.5" fill="#2c3136"/><path d="M58 67 L68 67" stroke="#2c3136" stroke-width="3"/><path d="M44 68 H30 M44 74 H26 M70 68 H84 M70 74 H88" stroke="#7a5332" stroke-width="3.5" stroke-linecap="round"/><path d="M100 82 C115 88 119 72 113 61" fill="none" stroke="#7a5332" stroke-width="4" stroke-linecap="round"/></g>
</svg>
