<svg xmlns="http://www.w3.org/2000/svg" viewBox="0 0 480 120">
  <g transform="translate(0 0)">
    <path d="M26 78 C38 66 54 64 68 72 C82 60 100 60 114 72 C126 68 136 69 145 77 L145 89 C136 97 126 98 114 94 C100 104 82 104 68 94 C54 102 38 100 26 88 Z" fill="#88df63" stroke="#326b34" stroke-width="5" stroke-linejoin="round"/>
    <circle cx="34" cy="77" r="14" fill="#a8ef7a" stroke="#326b34" stroke-width="5"/>
    <circle cx="58" cy="81" r="16" fill="#88df63" stroke="#326b34" stroke-width="5"/>
    <circle cx="84" cy="81" r="17" fill="#a8ef7a" stroke="#326b34" stroke-width="5"/>
    <circle cx="111" cy="79" r="16" fill="#88df63" stroke="#326b34" stroke-width="5"/>
    <circle cx="136" cy="82" r="14" fill="#a8ef7a" stroke="#326b34" stroke-width="5"/>
    <circle cx="29" cy="73" r="3.5" fill="#fff"/>
    <circle cx="38" cy="72" r="3.5" fill="#fff"/>
    <circle cx="29" cy="74" r="1.5" fill="#2f5130"/>
    <circle cx="38" cy="73" r="1.5" fill="#2f5130"/>
    <path d="M27 87 C30 91 37 91 41 87" fill="none" stroke="#2f5130" stroke-width="3.5" stroke-linecap="round"/>
    <path d="M29 60 C23 50 15 46 8 50 M40 60 C45 50 53 47 60 51" fill="none" stroke="#326b34" stroke-width="4" stroke-linecap="round"/>
    <path d="M52 98 L48 106 M79 100 L75 109 M106 98 L103 106 M132 100 L136 108" stroke="#326b34" stroke-width="4.5" stroke-linecap="round"/>
  </g>
  <g transform="translate(120 0)">
    <path d="M26 82 C38 70 54 67 68 74 C82 61 100 59 114 70 C126 64 136 64 145 70 L145 84 C136 93 126 95 114 92 C100 101 82 102 68 95 C54 101 38 101 26 92 Z" fill="#88df63" stroke="#326b34" stroke-width="5" stroke-linejoin="round"/>
    <circle cx="34" cy="81" r="14" fill="#a8ef7a" stroke="#326b34" stroke-width="5"/>
    <circle cx="58" cy="77" r="16" fill="#88df63" stroke="#326b34" stroke-width="5"/>
    <circle cx="84" cy="72" r="17" fill="#a8ef7a" stroke="#326b34" stroke-width="5"/>
    <circle cx="111" cy="74" r="16" fill="#88df63" stroke="#326b34" stroke-width="5"/>
    <circle cx="136" cy="80" r="14" fill="#a8ef7a" stroke="#326b34" stroke-width="5"/>
    <circle cx="29" cy="77" r="3.5" fill="#fff"/>
    <circle cx="38" cy="76" r="3.5" fill="#fff"/>
    <circle cx="29" cy="78" r="1.5" fill="#2f5130"/>
    <circle cx="38" cy="77" r="1.5" fill="#2f5130"/>
    <path d="M27 91 C30 95 37 95 41 91" fill="none" stroke="#2f5130" stroke-width="3.5" stroke-linecap="round"/>
    <path d="M29 64 C23 54 15 50 8 54 M40 64 C45 54 53 51 60 55" fill="none" stroke="#326b34" stroke-width="4" stroke-linecap="round"/>
    <path d="M52 101 L48 109 M79 96 L75 106 M106 92 L103 101 M132 98 L136 106" stroke="#326b34" stroke-width="4.5" stroke-linecap="round"/>
  </g>
  <g transform="translate(240 0)">
    <path d="M26 79 C38 68 54 68 68 75 C82 66 100 64 114 70 C126 61 136 59 145 64 L145 79 C136 89 126 92 114 92 C100 101 82 103 68 97 C54 101 38 101 26 90 Z" fill="#88df63" stroke="#326b34" stroke-width="5" stroke-linejoin="round"/>
    <circle cx="34" cy="78" r="14" fill="#a8ef7a" stroke="#326b34" stroke-width="5"/>
    <circle cx="58" cy="80" r="16" fill="#88df63" stroke="#326b34" stroke-width="5"/>
    <circle cx="84" cy="77" r="17" fill="#a8ef7a" stroke="#326b34" stroke-width="5"/>
    <circle cx="111" cy="71" r="16" fill="#88df63" stroke="#326b34" stroke-width="5"/>
    <circle cx="136" cy="68" r="14" fill="#a8ef7a" stroke="#326b34" stroke-width="5"/>
    <circle cx="29" cy="74" r="3.5" fill="#fff"/>
    <circle cx="38" cy="73" r="3.5" fill="#fff"/>
    <circle cx="29" cy="75" r="1.5" fill="#2f5130"/>
    <circle cx="38" cy="74" r="1.5" fill="#2f5130"/>
    <path d="M27 88 C30 92 37 92 41 88" fill="none" stroke="#2f5130" stroke-width="3.5" stroke-linecap="round"/>
    <path d="M29 61 C23 51 15 47 8 51 M40 61 C45 51 53 48 60 52" fill="none" stroke="#326b34" stroke-width="4" stroke-linecap="round"/>
    <path d="M52 99 L48 107 M79 100 L75 109 M106 95 L103 104 M132 90 L136 98" stroke="#326b34" stroke-width="4.5" stroke-linecap="round"/>
  </g>
  <g transform="translate(360 0)">
    <path d="M26 82 C38 70 54 67 68 74 C82 61 100 59 114 70 C126 64 136 64 145 70 L145 84 C136 93 126 95 114 92 C100 101 82 102 68 95 C54 101 38 101 26 92 Z" fill="#88df63" stroke="#326b34" stroke-width="5" stroke-linejoin="round"/>
    <circle cx="34" cy="81" r="14" fill="#a8ef7a" stroke="#326b34" stroke-width="5"/>
    <circle cx="58" cy="77" r="16" fill="#88df63" stroke="#326b34" stroke-width="5"/>
    <circle cx="84" cy="72" r="17" fill="#a8ef7a" stroke="#326b34" stroke-width="5"/>
    <circle cx="111" cy="74" r="16" fill="#88df63" stroke="#326b34" stroke-width="5"/>
    <circle cx="136" cy="80" r="14" fill="#a8ef7a" stroke="#326b34" stroke-width="5"/>
    <circle cx="29" cy="77" r="3.5" fill="#fff"/>
    <circle cx="38" cy="76" r="3.5" fill="#fff"/>
    <circle cx="29" cy="78" r="1.5" fill="#2f5130"/>
    <circle cx="38" cy="77" r="1.5" fill="#2f5130"/>
    <path d="M27 91 C30 95 37 95 41 91" fill="none" stroke="#2f5130" stroke-width="3.5" stroke-linecap="round"/>
    <path d="M29 64 C23 54 15 50 8 54 M40 64 C45 54 53 51 60 55" fill="none" stroke="#326b34" stroke-width="4" stroke-linecap="round"/>
    <path d="M52 101 L48 109 M79 96 L75 106 M106 92 L103 101 M132 98 L136 106" stroke="#326b34" stroke-width="4.5" stroke-linecap="round"/>
  </g>
</svg>
