<svg xmlns="http://www.w3.org/2000/svg" viewBox="0 0 480 120">
  <g transform="translate(0 0)"><circle cx="60" cy="78" r="24" fill="#ffe45a" stroke="#8e7420" stroke-width="5"/><circle cx="56" cy="54" r="12" fill="#ffe45a" stroke="#8e7420" stroke-width="5"/><path d="M44 55 L32 50 L34 60 Z" fill="#ffb347" stroke="#8a5a1e" stroke-width="4" stroke-linejoin="round"/><circle cx="55" cy="51" r="2.8" fill="#fff"/><circle cx="56" cy="52" r="1.4" fill="#243038"/><path d="M62 50 L66 43 L70 51 Z" fill="#ffcc5a" stroke="#8e7420" stroke-width="3"/><path d="M56 99 L53 109 M66 99 L69 109" stroke="#8a5a1e" stroke-width="4" stroke-linecap="round"/></g>
  <g transform="translate(120 0)"><circle cx="60" cy="74" r="24" fill="#ffe45a" stroke="#8e7420" stroke-width="5"/><circle cx="56" cy="50" r="12" fill="#ffe45a" stroke="#8e7420" stroke-width="5"/><path d="M44 51 L32 46 L34 56 Z" fill="#ffb347" stroke="#8a5a1e" stroke-width="4" stroke-linejoin="round"/><circle cx="55" cy="47" r="2.8" fill="#fff"/><circle cx="56" cy="48" r="1.4" fill="#243038"/><path d="M62 46 L66 39 L70 47 Z" fill="#ffcc5a" stroke="#8e7420" stroke-width="3"/><path d="M56 95 L53 105 M66 95 L69 105" stroke="#8a5a1e" stroke-width="4" stroke-linecap="round"/></g>
  <g transform="translate(240 0)"><circle cx="60" cy="80" r="24" fill="#ffe45a" stroke="#8e7420" stroke-width="5"/><circle cx="56" cy="56" r="12" fill="#ffe45a" stroke="#8e7420" stroke-width="5"/><path d="M44 57 L32 52 L34 62 Z" fill="#ffb347" stroke="#8a5a1e" stroke-width="4" stroke-linejoin="round"/><circle cx="55" cy="53" r="2.8" fill="#fff"/><circle cx="56" cy="54" r="1.4" fill="#243038"/><path d="M62 52 L66 45 L70 53 Z" fill="#ffcc5a" stroke="#8e7420" stroke-width="3"/><path d="M56 101 L53 111 M66 101 L69 111" stroke="#8a5a1e" stroke-width="4" stroke-linecap="round"/></g>
  <g transform="translate(360 0)"><circle cx="60" cy="74" r="24" fill="#ffe45a" stroke="#8e7420" stroke-width="5"/><circle cx="56" cy="50" r="12" fill="#ffe45a" stroke="#8e7420" stroke-width="5"/><path d="M44 51 L32 46 L34 56 Z" fill="#ffb347" stroke="#8a5a1e" stroke-width="4" stroke-linejoin="round"/><circle cx="55" cy="47" r="2.8" fill="#fff"/><circle cx="56" cy="48" r="1.4" fill="#243038"/><path d="M62 46 L66 39 L70 47 Z" fill="#ffcc5a" stroke="#8e7420" stroke-width="3"/><path d="M56 95 L53 105 M66 95 L69 105" stroke="#8a5a1e" stroke-width="4" stroke-linecap="round"/></g>
</svg>
