<svg xmlns="http://www.w3.org/2000/svg" viewBox="0 0 640 120">
  <g transform="translate(0 0)"><ellipse cx="78" cy="81" rx="28" ry="22" fill="#c89468" stroke="#6b4a31" stroke-width="5"/><circle cx="58" cy="62" r="15" fill="#c89468" stroke="#6b4a31" stroke-width="5"/><ellipse cx="47" cy="63" rx="7" ry="14" fill="#9f6b45" stroke="#6b4a31" stroke-width="4"/><ellipse cx="69" cy="63" rx="7" ry="14" fill="#9f6b45" stroke="#6b4a31" stroke-width="4"/><circle cx="55" cy="59" r="3" fill="#fff"/><circle cx="64" cy="59" r="3" fill="#fff"/><circle cx="56" cy="60" r="1.5" fill="#243038"/><circle cx="65" cy="60" r="1.5" fill="#243038"/><circle cx="60" cy="69" r="3.2" fill="#243038"/><path d="M60 73 C63 77 67 78 71 77" fill="none" stroke="#243038" stroke-width="3"/><path d="M101 80 C112 68 112 57 103 49" fill="none" stroke="#6b4a31" stroke-width="4" stroke-linecap="round"/></g>
  <g transform="translate(160 0)"><ellipse cx="78" cy="79" rx="28" ry="22" fill="#c89468" stroke="#6b4a31" stroke-width="5"/><circle cx="58" cy="60" r="15" fill="#c89468" stroke="#6b4a31" stroke-width="5"/><ellipse cx="47" cy="64" rx="7" ry="14" fill="#9f6b45" stroke="#6b4a31" stroke-width="4"/><ellipse cx="69" cy="60" rx="7" ry="14" fill="#9f6b45" stroke="#6b4a31" stroke-width="4"/><circle cx="55" cy="57" r="3" fill="#fff"/><circle cx="64" cy="57" r="3" fill="#fff"/><circle cx="56" cy="58" r="1.5" fill="#243038"/><circle cx="65" cy="58" r="1.5" fill="#243038"/><circle cx="60" cy="67" r="3.2" fill="#243038"/><path d="M60 71 C63 75 67 76 71 75" fill="none" stroke="#243038" stroke-width="3"/><path d="M101 81 C116 86 118 72 112 62" fill="none" stroke="#6b4a31" stroke-width="4" stroke-linecap="round"/></g>
  <g transform="translate(320 0)"><ellipse cx="78" cy="82" rx="28" ry="22" fill="#c89468" stroke="#6b4a31" stroke-width="5"/><circle cx="58" cy="63" r="15" fill="#c89468" stroke="#6b4a31" stroke-width="5"/><ellipse cx="47" cy="60" rx="7" ry="14" fill="#9f6b45" stroke="#6b4a31" stroke-width="4"/><ellipse cx="69" cy="64" rx="7" ry="14" fill="#9f6b45" stroke="#6b4a31" stroke-width="4"/><circle cx="55" cy="60" r="3" fill="#fff"/><circle cx="64" cy="60" r="3" fill="#fff"/><circle cx="56" cy="61" r="1.5" fill="#243038"/><circle cx="65" cy="61" r="1.5" fill="#243038"/><circle cx="60" cy="70" r="3.2" fill="#243038"/><path d="M60 74 C63 78 67 79 71 78" fill="none" stroke="#243038" stroke-width="3"/><path d="M101 82 C111 70 111 59 103 51" fill="none" stroke="#6b4a31" stroke-width="4" stroke-linecap="round"/></g>
  <g transform="translate(480 0)"><ellipse cx="78" cy="79" rx="28" ry="22" fill="#c89468" stroke="#6b4a31" stroke-width="5"/><circle cx="58" cy="60" r="15" fill="#c89468" stroke="#6b4a31" stroke-width="5"/><ellipse cx="47" cy="64" rx="7" ry="14" fill="#9f6b45" stroke="#6b4a31" stroke-width="4"/><ellipse cx="69" cy="60" rx="7" ry="14" fill="#9f6b45" stroke="#6b4a31" stroke-width="4"/><circle cx="55" cy="57" r="3" fill="#fff"/><circle cx="64" cy="57" r="3" fill="#fff"/><circle cx="56" cy="58" r="1.5" fill="#243038"/><circle cx="65" cy="58" r="1.5" fill="#243038"/><circle cx="60" cy="67" r="3.2" fill="#243038"/><path d="M60 71 C63 75 67 76 71 75" fill="none" stroke="#243038" stroke-width="3"/><path d="M101 81 C116 86 118 72 112 62" fill="none" stroke="#6b4a31" stroke-width="4" stroke-linecap="round"/></g>
</svg>
