<svg xmlns="http://www.w3.org/2000/svg" viewBox="0 0 480 120">
  <g transform="translate(0 0)">
    <ellipse cx="45" cy="49" rx="24" ry="10" fill="#d8f5ff" stroke="#5d97aa" stroke-width="4" opacity=".9"/>
    <ellipse cx="75" cy="49" rx="24" ry="10" fill="#d8f5ff" stroke="#5d97aa" stroke-width="4" opacity=".9"/>
    <ellipse cx="45" cy="72" rx="22" ry="9" fill="#d8f5ff" stroke="#5d97aa" stroke-width="4" opacity=".9"/>
    <ellipse cx="75" cy="72" rx="22" ry="9" fill="#d8f5ff" stroke="#5d97aa" stroke-width="4" opacity=".9"/>
    <ellipse cx="60" cy="72" rx="10" ry="29" fill="#52c1a8" stroke="#2b5d52" stroke-width="5"/>
    <circle cx="60" cy="44" r="10" fill="#52c1a8" stroke="#2b5d52" stroke-width="5"/>
    <circle cx="56" cy="41" r="2.8" fill="#fff"/>
    <circle cx="64" cy="41" r="2.8" fill="#fff"/>
  </g>
  <g transform="translate(120 0)">
    <ellipse cx="37" cy="42" rx="28" ry="7.5" fill="#d8f5ff" stroke="#5d97aa" stroke-width="4" opacity=".9"/>
    <ellipse cx="83" cy="42" rx="28" ry="7.5" fill="#d8f5ff" stroke="#5d97aa" stroke-width="4" opacity=".9"/>
    <ellipse cx="37" cy="80" rx="26" ry="7.5" fill="#d8f5ff" stroke="#5d97aa" stroke-width="4" opacity=".9"/>
    <ellipse cx="83" cy="80" rx="26" ry="7.5" fill="#d8f5ff" stroke="#5d97aa" stroke-width="4" opacity=".9"/>
    <ellipse cx="60" cy="72" rx="10" ry="29" fill="#52c1a8" stroke="#2b5d52" stroke-width="5"/>
    <circle cx="60" cy="44" r="10" fill="#52c1a8" stroke="#2b5d52" stroke-width="5"/>
    <circle cx="56" cy="41" r="2.8" fill="#fff"/>
    <circle cx="64" cy="41" r="2.8" fill="#fff"/>
  </g>
  <g transform="translate(240 0)">
    <ellipse cx="45" cy="49" rx="24" ry="10" fill="#d8f5ff" stroke="#5d97aa" stroke-width="4" opacity=".9"/>
    <ellipse cx="75" cy="49" rx="24" ry="10" fill="#d8f5ff" stroke="#5d97aa" stroke-width="4" opacity=".9"/>
    <ellipse cx="45" cy="72" rx="22" ry="9" fill="#d8f5ff" stroke="#5d97aa" stroke-width="4" opacity=".9"/>
    <ellipse cx="75" cy="72" rx="22" ry="9" fill="#d8f5ff" stroke="#5d97aa" stroke-width="4" opacity=".9"/>
    <ellipse cx="60" cy="72" rx="10" ry="29" fill="#52c1a8" stroke="#2b5d52" stroke-width="5"/>
    <circle cx="60" cy="44" r="10" fill="#52c1a8" stroke="#2b5d52" stroke-width="5"/>
    <circle cx="56" cy="41" r="2.8" fill="#fff"/>
    <circle cx="64" cy="41" r="2.8" fill="#fff"/>
  </g>
  <g transform="translate(360 0)">
    <ellipse cx="37" cy="42" rx="28" ry="7.5" fill="#d8f5ff" stroke="#5d97aa" stroke-width="4" opacity=".9"/>
    <ellipse cx="83" cy="42" rx="28" ry="7.5" fill="#d8f5ff" stroke="#5d97aa" stroke-width="4" opacity=".9"/>
    <ellipse cx="37" cy="80" rx="26" ry="7.5" fill="#d8f5ff" stroke="#5d97aa" stroke-width="4" opacity=".9"/>
    <ellipse cx="83" cy="80" rx="26" ry="7.5" fill="#d8f5ff" stroke="#5d97aa" stroke-width="4" opacity=".9"/>
    <ellipse cx="60" cy="72" rx="10" ry="29" fill="#52c1a8" stroke="#2b5d52" stroke-width="5"/>
    <circle cx="60" cy="44" r="10" fill="#52c1a8" stroke="#2b5d52" stroke-width="5"/>
    <circle cx="56" cy="41" r="2.8" fill="#fff"/>
    <circle cx="64" cy="41" r="2.8" fill="#fff"/>
  </g>
</svg>
