<svg xmlns="http://www.w3.org/2000/svg" viewBox="0 0 640 120">
  <g transform="translate(0 0)"><ellipse cx="73" cy="78" rx="28" ry="22" fill="#ffe877" stroke="#93731e" stroke-width="5"/><circle cx="54" cy="60" r="15" fill="#ffe877" stroke="#93731e" stroke-width="5"/><path d="M41 61 L26 56 L28 68 Z" fill="#ffb347" stroke="#8a5a1e" stroke-width="4" stroke-linejoin="round"/><circle cx="52" cy="57" r="3.2" fill="#fff"/><circle cx="53" cy="58" r="1.6" fill="#2a3a41"/><path d="M74 97 L70 109 M86 97 L89 109" stroke="#8a5a1e" stroke-width="4.5" stroke-linecap="round"/></g>
  <g transform="translate(160 0)"><ellipse cx="73" cy="76" rx="28" ry="22" fill="#ffe877" stroke="#93731e" stroke-width="5"/><circle cx="54" cy="57" r="15" fill="#ffe877" stroke="#93731e" stroke-width="5"/><path d="M41 58 L26 53 L28 65 Z" fill="#ffb347" stroke="#8a5a1e" stroke-width="4" stroke-linejoin="round"/><circle cx="52" cy="54" r="3.2" fill="#fff"/><circle cx="53" cy="55" r="1.6" fill="#2a3a41"/><path d="M75 96 L70 108 M88 96 L93 108" stroke="#8a5a1e" stroke-width="4.5" stroke-linecap="round"/></g>
  <g transform="translate(320 0)"><ellipse cx="73" cy="80" rx="28" ry="22" fill="#ffe877" stroke="#93731e" stroke-width="5"/><circle cx="55" cy="63" r="15" fill="#ffe877" stroke="#93731e" stroke-width="5"/><path d="M42 64 L27 59 L29 71 Z" fill="#ffb347" stroke="#8a5a1e" stroke-width="4" stroke-linejoin="round"/><circle cx="53" cy="60" r="3.2" fill="#fff"/><circle cx="54" cy="61" r="1.6" fill="#2a3a41"/><path d="M74 99 L71 111 M86 99 L89 111" stroke="#8a5a1e" stroke-width="4.5" stroke-linecap="round"/></g>
  <g transform="translate(480 0)"><ellipse cx="73" cy="76" rx="28" ry="22" fill="#ffe877" stroke="#93731e" stroke-width="5"/><circle cx="54" cy="57" r="15" fill="#ffe877" stroke="#93731e" stroke-width="5"/><path d="M41 58 L26 53 L28 65 Z" fill="#ffb347" stroke="#8a5a1e" stroke-width="4" stroke-linejoin="round"/><circle cx="52" cy="54" r="3.2" fill="#fff"/><circle cx="53" cy="55" r="1.6" fill="#2a3a41"/><path d="M75 96 L70 108 M88 96 L93 108" stroke="#8a5a1e" stroke-width="4.5" stroke-linecap="round"/></g>
</svg>
