<svg xmlns="http://www.w3.org/2000/svg" viewBox="0 0 480 120">
  <g transform="translate(0 0)"><circle cx="60" cy="73" r="24" fill="#ffe062" opacity=".22"/><ellipse cx="54" cy="55" rx="16" ry="10" fill="#d8f5ff" stroke="#5d97aa" stroke-width="4" opacity=".9"/><ellipse cx="70" cy="55" rx="16" ry="10" fill="#d8f5ff" stroke="#5d97aa" stroke-width="4" opacity=".9"/><ellipse cx="60" cy="77" rx="23" ry="15" fill="#4d4030" stroke="#2c2318" stroke-width="5"/><ellipse cx="60" cy="83" rx="15" ry="10" fill="#ffe062" stroke="#a8861d" stroke-width="4"/><circle cx="48" cy="72" r="9" fill="#4d4030"/><circle cx="45" cy="69" r="2.8" fill="#fff"/><circle cx="51" cy="69" r="2.8" fill="#fff"/></g>
  <g transform="translate(120 0)"><circle cx="60" cy="73" r="28" fill="#ffe062" opacity=".3"/><ellipse cx="49" cy="50" rx="19" ry="7" fill="#d8f5ff" stroke="#5d97aa" stroke-width="4" opacity=".9"/><ellipse cx="71" cy="50" rx="19" ry="7" fill="#d8f5ff" stroke="#5d97aa" stroke-width="4" opacity=".9"/><ellipse cx="60" cy="77" rx="23" ry="15" fill="#4d4030" stroke="#2c2318" stroke-width="5"/><ellipse cx="60" cy="83" rx="15" ry="10" fill="#ffe062" stroke="#a8861d" stroke-width="4"/><circle cx="48" cy="72" r="9" fill="#4d4030"/><circle cx="45" cy="69" r="2.8" fill="#fff"/><circle cx="51" cy="69" r="2.8" fill="#fff"/></g>
  <g transform="translate(240 0)"><circle cx="60" cy="73" r="24" fill="#ffe062" opacity=".22"/><ellipse cx="54" cy="55" rx="16" ry="10" fill="#d8f5ff" stroke="#5d97aa" stroke-width="4" opacity=".9"/><ellipse cx="70" cy="55" rx="16" ry="10" fill="#d8f5ff" stroke="#5d97aa" stroke-width="4" opacity=".9"/><ellipse cx="60" cy="77" rx="23" ry="15" fill="#4d4030" stroke="#2c2318" stroke-width="5"/><ellipse cx="60" cy="83" rx="15" ry="10" fill="#ffe062" stroke="#a8861d" stroke-width="4"/><circle cx="48" cy="72" r="9" fill="#4d4030"/><circle cx="45" cy="69" r="2.8" fill="#fff"/><circle cx="51" cy="69" r="2.8" fill="#fff"/></g>
  <g transform="translate(360 0)"><circle cx="60" cy="73" r="28" fill="#ffe062" opacity=".3"/><ellipse cx="49" cy="50" rx="19" ry="7" fill="#d8f5ff" stroke="#5d97aa" stroke-width="4" opacity=".9"/><ellipse cx="71" cy="50" rx="19" ry="7" fill="#d8f5ff" stroke="#5d97aa" stroke-width="4" opacity=".9"/><ellipse cx="60" cy="77" rx="23" ry="15" fill="#4d4030" stroke="#2c2318" stroke-width="5"/><ellipse cx="60" cy="83" rx="15" ry="10" fill="#ffe062" stroke="#a8861d" stroke-width="4"/><circle cx="48" cy="72" r="9" fill="#4d4030"/><circle cx="45" cy="69" r="2.8" fill="#fff"/><circle cx="51" cy="69" r="2.8" fill="#fff"/></g>
</svg>
