<svg xmlns="http://www.w3.org/2000/svg" viewBox="0 0 480 120">
  <g transform="translate(0 0)">
    <ellipse cx="60" cy="78" rx="30" ry="24" fill="#62cc69" stroke="#2f7437" stroke-width="5"/>
    <circle cx="46" cy="54" r="13" fill="#62cc69" stroke="#2f7437" stroke-width="5"/>
    <circle cx="74" cy="54" r="13" fill="#62cc69" stroke="#2f7437" stroke-width="5"/>
    <circle cx="46" cy="54" r="4" fill="#243038"/>
    <circle cx="74" cy="54" r="4" fill="#243038"/>
    <path d="M42 94 L30 106 M78 94 L90 106" stroke="#2f7437" stroke-width="5" stroke-linecap="round"/>
  </g>
  <g transform="translate(120 0)">
    <ellipse cx="60" cy="76" rx="31" ry="20" fill="#62cc69" stroke="#2f7437" stroke-width="5"/>
    <circle cx="46" cy="53" r="13" fill="#62cc69" stroke="#2f7437" stroke-width="5"/>
    <circle cx="74" cy="53" r="13" fill="#62cc69" stroke="#2f7437" stroke-width="5"/>
    <circle cx="46" cy="53" r="4" fill="#243038"/>
    <circle cx="74" cy="53" r="4" fill="#243038"/>
    <path d="M42 92 L24 100 M78 92 L96 100" stroke="#2f7437" stroke-width="5" stroke-linecap="round"/>
  </g>
  <g transform="translate(240 0)">
    <ellipse cx="60" cy="70" rx="26" ry="18" fill="#62cc69" stroke="#2f7437" stroke-width="5"/>
    <circle cx="46" cy="46" r="12" fill="#62cc69" stroke="#2f7437" stroke-width="5"/>
    <circle cx="74" cy="46" r="12" fill="#62cc69" stroke="#2f7437" stroke-width="5"/>
    <circle cx="46" cy="46" r="4" fill="#243038"/>
    <circle cx="74" cy="46" r="4" fill="#243038"/>
    <path d="M42 86 L18 94 M78 86 L102 94" stroke="#2f7437" stroke-width="5" stroke-linecap="round"/>
  </g>
  <g transform="translate(360 0)">
    <ellipse cx="60" cy="76" rx="31" ry="20" fill="#62cc69" stroke="#2f7437" stroke-width="5"/>
    <circle cx="46" cy="53" r="13" fill="#62cc69" stroke="#2f7437" stroke-width="5"/>
    <circle cx="74" cy="53" r="13" fill="#62cc69" stroke="#2f7437" stroke-width="5"/>
    <circle cx="46" cy="53" r="4" fill="#243038"/>
    <circle cx="74" cy="53" r="4" fill="#243038"/>
    <path d="M42 92 L26 102 M78 92 L94 102" stroke="#2f7437" stroke-width="5" stroke-linecap="round"/>
  </g>
</svg>
