<svg xmlns="http://www.w3.org/2000/svg" viewBox="0 0 640 120">
  <g transform="translate(0 0)"><ellipse cx="70" cy="76" rx="28" ry="16" fill="#83d958" stroke="#356d31" stroke-width="5"/><circle cx="46" cy="72" r="11" fill="#83d958" stroke="#356d31" stroke-width="5"/><circle cx="43" cy="68" r="2.5" fill="#fff"/><circle cx="49" cy="68" r="2.5" fill="#fff"/><path d="M78 74 L106 56 L103 78 Z" fill="#9ee878" stroke="#356d31" stroke-width="4" stroke-linejoin="round"/><path d="M78 86 L105 106 M66 88 L58 108" stroke="#356d31" stroke-width="5" stroke-linecap="round"/><path d="M44 60 C36 48 31 45 24 48 M53 60 C59 47 66 44 74 46" fill="none" stroke="#356d31" stroke-width="3.5" stroke-linecap="round"/></g>
  <g transform="translate(160 0)"><ellipse cx="68" cy="79" rx="27" ry="15" fill="#83d958" stroke="#356d31" stroke-width="5"/><circle cx="46" cy="75" r="11" fill="#83d958" stroke="#356d31" stroke-width="5"/><circle cx="43" cy="71" r="2.5" fill="#fff"/><circle cx="49" cy="71" r="2.5" fill="#fff"/><path d="M76 77 L112 42 L106 82 Z" fill="#9ee878" stroke="#356d31" stroke-width="4" stroke-linejoin="round"/><path d="M76 88 L110 112 M64 90 L56 108" stroke="#356d31" stroke-width="5" stroke-linecap="round"/><path d="M44 63 C36 51 31 48 24 51 M53 63 C59 50 66 47 74 49" fill="none" stroke="#356d31" stroke-width="3.5" stroke-linecap="round"/></g>
  <g transform="translate(320 0)"><ellipse cx="70" cy="74" rx="28" ry="16" fill="#83d958" stroke="#356d31" stroke-width="5"/><circle cx="46" cy="70" r="11" fill="#83d958" stroke="#356d31" stroke-width="5"/><circle cx="43" cy="66" r="2.5" fill="#fff"/><circle cx="49" cy="66" r="2.5" fill="#fff"/><path d="M78 72 L110 60 L106 80 Z" fill="#9ee878" stroke="#356d31" stroke-width="4" stroke-linejoin="round"/><path d="M77 86 L105 108 M66 88 L58 109" stroke="#356d31" stroke-width="5" stroke-linecap="round"/><path d="M44 58 C36 46 31 43 24 46 M53 58 C59 45 66 42 74 44" fill="none" stroke="#356d31" stroke-width="3.5" stroke-linecap="round"/></g>
  <g transform="translate(480 0)"><ellipse cx="68" cy="79" rx="27" ry="15" fill="#83d958" stroke="#356d31" stroke-width="5"/><circle cx="46" cy="75" r="11" fill="#83d958" stroke="#356d31" stroke-width="5"/><circle cx="43" cy="71" r="2.5" fill="#fff"/><circle cx="49" cy="71" r="2.5" fill="#fff"/><path d="M76 77 L112 42 L106 82 Z" fill="#9ee878" stroke="#356d31" stroke-width="4" stroke-linejoin="round"/><path d="M76 88 L110 112 M64 90 L56 108" stroke="#356d31" stroke-width="5" stroke-linecap="round"/><path d="M44 63 C36 51 31 48 24 51 M53 63 C59 50 66 47 74 49" fill="none" stroke="#356d31" stroke-width="3.5" stroke-linecap="round"/></g>
</svg>
