<svg xmlns="http://www.w3.org/2000/svg" viewBox="0 0 480 120">
  <g transform="translate(0 0)">
    <ellipse cx="60" cy="74" rx="31" ry="25" fill="#f95a5a" stroke="#432833" stroke-width="6"/>
    <path d="M60 49 L60 98" stroke="#432833" stroke-width="5" stroke-linecap="round"/>
    <circle cx="60" cy="42" r="16" fill="#342833"/>
    <circle cx="53" cy="38" r="3.5" fill="#fff"/>
    <circle cx="67" cy="38" r="3.5" fill="#fff"/>
    <circle cx="47" cy="67" r="6" fill="#342833"/>
    <circle cx="73" cy="67" r="6" fill="#342833"/>
    <circle cx="49" cy="83" r="5" fill="#342833"/>
    <circle cx="71" cy="83" r="5" fill="#342833"/>
    <path d="M36 75 H18 M84 75 H102 M38 90 H22 M82 90 H98" stroke="#342833" stroke-width="5" stroke-linecap="round"/>
  </g>
  <g transform="translate(120 0)">
    <ellipse cx="60" cy="74" rx="31" ry="25" fill="#f95a5a" stroke="#432833" stroke-width="6"/>
    <path d="M60 49 L60 98" stroke="#432833" stroke-width="5" stroke-linecap="round"/>
    <circle cx="60" cy="42" r="16" fill="#342833"/>
    <circle cx="53" cy="38" r="3.5" fill="#fff"/>
    <circle cx="67" cy="38" r="3.5" fill="#fff"/>
    <circle cx="47" cy="67" r="6" fill="#342833"/>
    <circle cx="73" cy="67" r="6" fill="#342833"/>
    <circle cx="49" cy="83" r="5" fill="#342833"/>
    <circle cx="71" cy="83" r="5" fill="#342833"/>
    <path d="M34 73 L17 65 M86 73 L103 65 M38 91 L24 98 M82 91 L96 98" stroke="#342833" stroke-width="5" stroke-linecap="round"/>
  </g>
  <g transform="translate(240 0)">
    <ellipse cx="60" cy="74" rx="31" ry="25" fill="#f95a5a" stroke="#432833" stroke-width="6"/>
    <path d="M60 49 L60 98" stroke="#432833" stroke-width="5" stroke-linecap="round"/>
    <circle cx="60" cy="42" r="16" fill="#342833"/>
    <circle cx="53" cy="38" r="3.5" fill="#fff"/>
    <circle cx="67" cy="38" r="3.5" fill="#fff"/>
    <circle cx="47" cy="67" r="6" fill="#342833"/>
    <circle cx="73" cy="67" r="6" fill="#342833"/>
    <circle cx="49" cy="83" r="5" fill="#342833"/>
    <circle cx="71" cy="83" r="5" fill="#342833"/>
    <path d="M34 77 L18 86 M86 77 L102 86 M38 91 L24 84 M82 91 L96 84" stroke="#342833" stroke-width="5" stroke-linecap="round"/>
  </g>
  <g transform="translate(360 0)">
    <ellipse cx="60" cy="74" rx="31" ry="25" fill="#f95a5a" stroke="#432833" stroke-width="6"/>
    <path d="M60 49 L60 98" stroke="#432833" stroke-width="5" stroke-linecap="round"/>
    <circle cx="60" cy="42" r="16" fill="#342833"/>
    <circle cx="53" cy="38" r="3.5" fill="#fff"/>
    <circle cx="67" cy="38" r="3.5" fill="#fff"/>
    <circle cx="47" cy="67" r="6" fill="#342833"/>
    <circle cx="73" cy="67" r="6" fill="#342833"/>
    <circle cx="49" cy="83" r="5" fill="#342833"/>
    <circle cx="71" cy="83" r="5" fill="#342833"/>
    <path d="M36 75 H18 M84 75 H102 M38 90 H22 M82 90 H98" stroke="#342833" stroke-width="5" stroke-linecap="round"/>
  </g>
</svg>
