<svg xmlns="http://www.w3.org/2000/svg" viewBox="0 0 640 120">
  <g transform="translate(0 0)"><ellipse cx="78" cy="76" rx="28" ry="24" fill="#b58a66" stroke="#68462f" stroke-width="5"/><circle cx="67" cy="67" r="11" fill="#fff1d8" stroke="#68462f" stroke-width="4"/><circle cx="89" cy="67" r="11" fill="#fff1d8" stroke="#68462f" stroke-width="4"/><circle cx="67" cy="67" r="4.5" fill="#243038"/><circle cx="89" cy="67" r="4.5" fill="#243038"/><path d="M78 74 L73 82 H83 Z" fill="#ffb347" stroke="#8a5a1e" stroke-width="3.5"/><path d="M56 65 L42 58 L48 78 Z M100 65 L114 58 L108 78 Z" fill="#9b7355" stroke="#68462f" stroke-width="4"/></g>
  <g transform="translate(160 0)"><ellipse cx="78" cy="74" rx="28" ry="24" fill="#b58a66" stroke="#68462f" stroke-width="5"/><circle cx="67" cy="65" r="11" fill="#fff1d8" stroke="#68462f" stroke-width="4"/><circle cx="89" cy="65" r="11" fill="#fff1d8" stroke="#68462f" stroke-width="4"/><circle cx="67" cy="65" r="4.5" fill="#243038"/><circle cx="89" cy="65" r="4.5" fill="#243038"/><path d="M78 72 L73 80 H83 Z" fill="#ffb347" stroke="#8a5a1e" stroke-width="3.5"/><path d="M52 62 L30 52 L42 82 Z M104 62 L126 52 L114 82 Z" fill="#9b7355" stroke="#68462f" stroke-width="4"/></g>
  <g transform="translate(320 0)"><ellipse cx="78" cy="78" rx="28" ry="24" fill="#b58a66" stroke="#68462f" stroke-width="5"/><circle cx="67" cy="69" r="11" fill="#fff1d8" stroke="#68462f" stroke-width="4"/><circle cx="89" cy="69" r="11" fill="#fff1d8" stroke="#68462f" stroke-width="4"/><circle cx="67" cy="69" r="4.5" fill="#243038"/><circle cx="89" cy="69" r="4.5" fill="#243038"/><path d="M78 76 L73 84 H83 Z" fill="#ffb347" stroke="#8a5a1e" stroke-width="3.5"/><path d="M56 67 L42 60 L48 80 Z M100 67 L114 60 L108 80 Z" fill="#9b7355" stroke="#68462f" stroke-width="4"/></g>
  <g transform="translate(480 0)"><ellipse cx="78" cy="74" rx="28" ry="24" fill="#b58a66" stroke="#68462f" stroke-width="5"/><circle cx="67" cy="65" r="11" fill="#fff1d8" stroke="#68462f" stroke-width="4"/><circle cx="89" cy="65" r="11" fill="#fff1d8" stroke="#68462f" stroke-width="4"/><circle cx="67" cy="65" r="4.5" fill="#243038"/><circle cx="89" cy="65" r="4.5" fill="#243038"/><path d="M78 72 L73 80 H83 Z" fill="#ffb347" stroke="#8a5a1e" stroke-width="3.5"/><path d="M52 62 L30 52 L42 82 Z M104 62 L126 52 L114 82 Z" fill="#9b7355" stroke="#68462f" stroke-width="4"/></g>
</svg>
