<svg xmlns="http://www.w3.org/2000/svg" viewBox="0 0 640 120">
  <g transform="translate(0 0)"><ellipse cx="74" cy="79" rx="27" ry="22" fill="#f4f1ff" stroke="#7b6d8d" stroke-width="5"/><circle cx="60" cy="60" r="15" fill="#f4f1ff" stroke="#7b6d8d" stroke-width="5"/><ellipse cx="52" cy="34" rx="7" ry="19" fill="#f4f1ff" stroke="#7b6d8d" stroke-width="4"/><ellipse cx="66" cy="31" rx="7" ry="21" fill="#f4f1ff" stroke="#7b6d8d" stroke-width="4"/><ellipse cx="52" cy="34" rx="2.5" ry="12" fill="#ffb8cc"/><ellipse cx="66" cy="31" rx="2.5" ry="13" fill="#ffb8cc"/><circle cx="58" cy="57" r="3.2" fill="#fff"/><circle cx="59" cy="58" r="1.6" fill="#29343b"/><circle cx="65" cy="69" r="3.5" fill="#ff9bb8"/></g>
  <g transform="translate(160 0)"><ellipse cx="74" cy="77" rx="27" ry="22" fill="#f4f1ff" stroke="#7b6d8d" stroke-width="5"/><circle cx="60" cy="58" r="15" fill="#f4f1ff" stroke="#7b6d8d" stroke-width="5"/><ellipse cx="51" cy="28" rx="7" ry="23" fill="#f4f1ff" stroke="#7b6d8d" stroke-width="4"/><ellipse cx="68" cy="27" rx="7" ry="24" fill="#f4f1ff" stroke="#7b6d8d" stroke-width="4"/><ellipse cx="51" cy="28" rx="2.5" ry="15" fill="#ffb8cc"/><ellipse cx="68" cy="27" rx="2.5" ry="15" fill="#ffb8cc"/><circle cx="58" cy="55" r="3.2" fill="#fff"/><circle cx="59" cy="56" r="1.6" fill="#29343b"/><circle cx="65" cy="67" r="3.5" fill="#ff9bb8"/></g>
  <g transform="translate(320 0)"><ellipse cx="74" cy="80" rx="27" ry="22" fill="#f4f1ff" stroke="#7b6d8d" stroke-width="5"/><circle cx="60" cy="62" r="15" fill="#f4f1ff" stroke="#7b6d8d" stroke-width="5"/><ellipse cx="54" cy="36" rx="7" ry="18" fill="#f4f1ff" stroke="#7b6d8d" stroke-width="4"/><ellipse cx="67" cy="34" rx="7" ry="20" fill="#f4f1ff" stroke="#7b6d8d" stroke-width="4"/><ellipse cx="54" cy="36" rx="2.5" ry="11" fill="#ffb8cc"/><ellipse cx="67" cy="34" rx="2.5" ry="12" fill="#ffb8cc"/><circle cx="58" cy="59" r="3.2" fill="#fff"/><circle cx="59" cy="60" r="1.6" fill="#29343b"/><circle cx="65" cy="71" r="3.5" fill="#ff9bb8"/></g>
  <g transform="translate(480 0)"><ellipse cx="74" cy="77" rx="27" ry="22" fill="#f4f1ff" stroke="#7b6d8d" stroke-width="5"/><circle cx="60" cy="58" r="15" fill="#f4f1ff" stroke="#7b6d8d" stroke-width="5"/><ellipse cx="51" cy="28" rx="7" ry="23" fill="#f4f1ff" stroke="#7b6d8d" stroke-width="4"/><ellipse cx="68" cy="27" rx="7" ry="24" fill="#f4f1ff" stroke="#7b6d8d" stroke-width="4"/><ellipse cx="51" cy="28" rx="2.5" ry="15" fill="#ffb8cc"/><ellipse cx="68" cy="27" rx="2.5" ry="15" fill="#ffb8cc"/><circle cx="58" cy="55" r="3.2" fill="#fff"/><circle cx="59" cy="56" r="1.6" fill="#29343b"/><circle cx="65" cy="67" r="3.5" fill="#ff9bb8"/></g>
</svg>
