<svg xmlns="http://www.w3.org/2000/svg" viewBox="0 0 640 120">
  <g transform="translate(0 0)">
    <path d="M20 87 C36 100 72 100 92 84 C97 80 96 72 88 72 L36 72 C24 72 16 80 20 87 Z" fill="#9bd77d" stroke="#416b38" stroke-width="5"/>
    <circle cx="58" cy="62" r="22" fill="#e8a35f" stroke="#7a4c28" stroke-width="5"/>
    <path d="M58 47 C73 48 76 64 64 72 C53 79 41 70 46 60 C50 51 61 54 62 62 C63 68 54 71 51 65" fill="none" stroke="#7a4c28" stroke-width="4.5" stroke-linecap="round"/>
    <path d="M80 72 C83 52 89 44 99 38 M71 72 C72 54 76 45 84 39" fill="none" stroke="#416b38" stroke-width="4" stroke-linecap="round"/>
    <circle cx="100" cy="36" r="4" fill="#fff"/><circle cx="85" cy="38" r="4" fill="#fff"/>
  </g>
  <g transform="translate(160 0)">
    <path d="M20 89 C36 102 72 102 92 86 C97 82 96 74 88 74 L36 74 C24 74 16 82 20 89 Z" fill="#9bd77d" stroke="#416b38" stroke-width="5"/>
    <circle cx="58" cy="64" r="22" fill="#e8a35f" stroke="#7a4c28" stroke-width="5"/>
    <path d="M58 49 C73 50 76 66 64 74 C53 81 41 72 46 62 C50 53 61 56 62 64 C63 70 54 73 51 67" fill="none" stroke="#7a4c28" stroke-width="4.5" stroke-linecap="round"/>
    <path d="M82 74 C84 50 92 40 104 34 M72 74 C72 52 78 42 87 36" fill="none" stroke="#416b38" stroke-width="4" stroke-linecap="round"/>
    <circle cx="105" cy="32" r="4" fill="#fff"/><circle cx="88" cy="35" r="4" fill="#fff"/>
  </g>
  <g transform="translate(320 0)">
    <path d="M20 87 C36 100 72 100 92 84 C97 80 96 72 88 72 L36 72 C24 72 16 80 20 87 Z" fill="#9bd77d" stroke="#416b38" stroke-width="5"/>
    <circle cx="58" cy="62" r="22" fill="#e8a35f" stroke="#7a4c28" stroke-width="5"/>
    <path d="M58 47 C73 48 76 64 64 72 C53 79 41 70 46 60 C50 51 61 54 62 62 C63 68 54 71 51 65" fill="none" stroke="#7a4c28" stroke-width="4.5" stroke-linecap="round"/>
    <path d="M82 72 C84 48 92 38 104 32 M71 72 C72 50 77 40 86 34" fill="none" stroke="#416b38" stroke-width="4" stroke-linecap="round"/>
    <circle cx="105" cy="30" r="4" fill="#fff"/><circle cx="87" cy="33" r="4" fill="#fff"/>
  </g>
  <g transform="translate(480 0)">
    <path d="M20 89 C36 102 72 102 92 86 C97 82 96 74 88 74 L36 74 C24 74 16 82 20 89 Z" fill="#9bd77d" stroke="#416b38" stroke-width="5"/>
    <circle cx="58" cy="64" r="22" fill="#e8a35f" stroke="#7a4c28" stroke-width="5"/>
    <path d="M58 49 C73 50 76 66 64 74 C53 81 41 72 46 62 C50 53 61 56 62 64 C63 70 54 73 51 67" fill="none" stroke="#7a4c28" stroke-width="4.5" stroke-linecap="round"/>
    <path d="M80 74 C83 54 89 46 99 40 M71 74 C72 56 76 47 84 41" fill="none" stroke="#416b38" stroke-width="4" stroke-linecap="round"/>
    <circle cx="100" cy="38" r="4" fill="#fff"/><circle cx="85" cy="40" r="4" fill="#fff"/>
  </g>
</svg>
