<svg xmlns="http://www.w3.org/2000/svg" viewBox="0 0 640 120">
  <g transform="translate(0 0)"><circle cx="95" cy="45" r="20" fill="#d58a49" stroke="#7a4d2a" stroke-width="5"/><ellipse cx="74" cy="79" rx="24" ry="18" fill="#d58a49" stroke="#7a4d2a" stroke-width="5"/><circle cx="57" cy="65" r="12" fill="#d58a49" stroke="#7a4d2a" stroke-width="5"/><path d="M49 57 L53 46 L60 55 Z M57 56 L65 44 L66 57 Z" fill="#d58a49" stroke="#7a4d2a" stroke-width="3.5"/><circle cx="55" cy="62" r="2.5" fill="#fff"/><circle cx="56" cy="63" r="1.3" fill="#243038"/><ellipse cx="70" cy="82" rx="8" ry="10" fill="#fff0dc"/></g>
  <g transform="translate(160 0)"><circle cx="101" cy="39" r="23" fill="#d58a49" stroke="#7a4d2a" stroke-width="5"/><ellipse cx="74" cy="77" rx="24" ry="18" fill="#d58a49" stroke="#7a4d2a" stroke-width="5"/><circle cx="57" cy="63" r="12" fill="#d58a49" stroke="#7a4d2a" stroke-width="5"/><path d="M49 55 L53 44 L60 53 Z M57 54 L65 42 L66 55 Z" fill="#d58a49" stroke="#7a4d2a" stroke-width="3.5"/><circle cx="55" cy="60" r="2.5" fill="#fff"/><circle cx="56" cy="61" r="1.3" fill="#243038"/><ellipse cx="70" cy="80" rx="8" ry="10" fill="#fff0dc"/></g>
  <g transform="translate(320 0)"><circle cx="92" cy="47" r="20" fill="#d58a49" stroke="#7a4d2a" stroke-width="5"/><ellipse cx="74" cy="80" rx="24" ry="18" fill="#d58a49" stroke="#7a4d2a" stroke-width="5"/><circle cx="57" cy="66" r="12" fill="#d58a49" stroke="#7a4d2a" stroke-width="5"/><path d="M49 58 L53 47 L60 56 Z M57 57 L65 45 L66 58 Z" fill="#d58a49" stroke="#7a4d2a" stroke-width="3.5"/><circle cx="55" cy="63" r="2.5" fill="#fff"/><circle cx="56" cy="64" r="1.3" fill="#243038"/><ellipse cx="70" cy="83" rx="8" ry="10" fill="#fff0dc"/></g>
  <g transform="translate(480 0)"><circle cx="101" cy="39" r="23" fill="#d58a49" stroke="#7a4d2a" stroke-width="5"/><ellipse cx="74" cy="77" rx="24" ry="18" fill="#d58a49" stroke="#7a4d2a" stroke-width="5"/><circle cx="57" cy="63" r="12" fill="#d58a49" stroke="#7a4d2a" stroke-width="5"/><path d="M49 55 L53 44 L60 53 Z M57 54 L65 42 L66 55 Z" fill="#d58a49" stroke="#7a4d2a" stroke-width="3.5"/><circle cx="55" cy="60" r="2.5" fill="#fff"/><circle cx="56" cy="61" r="1.3" fill="#243038"/><ellipse cx="70" cy="80" rx="8" ry="10" fill="#fff0dc"/></g>
</svg>
