<svg xmlns="http://www.w3.org/2000/svg" viewBox="0 0 640 120">
  <g transform="translate(0 0)"><ellipse cx="76" cy="74" rx="28" ry="21" fill="#7fca66" stroke="#356d31" stroke-width="5"/><path d="M60 74 H92 M76 58 V90" stroke="#5da348" stroke-width="4"/><circle cx="48" cy="73" r="10" fill="#9be085" stroke="#356d31" stroke-width="4"/><circle cx="46" cy="70" r="2.8" fill="#fff"/><circle cx="50" cy="70" r="2.8" fill="#fff"/><path d="M62 90 L53 100 M90 90 L99 100 M62 58 L52 50 M90 58 L100 50" stroke="#356d31" stroke-width="4.5" stroke-linecap="round"/></g>
  <g transform="translate(160 0)"><ellipse cx="76" cy="74" rx="28" ry="21" fill="#7fca66" stroke="#356d31" stroke-width="5"/><path d="M60 74 H92 M76 58 V90" stroke="#5da348" stroke-width="4"/><circle cx="46" cy="72" r="10" fill="#9be085" stroke="#356d31" stroke-width="4"/><circle cx="44" cy="69" r="2.8" fill="#fff"/><circle cx="48" cy="69" r="2.8" fill="#fff"/><path d="M61 89 L49 99 M91 89 L103 99 M62 58 L53 48 M90 58 L98 50" stroke="#356d31" stroke-width="4.5" stroke-linecap="round"/></g>
  <g transform="translate(320 0)"><ellipse cx="76" cy="76" rx="28" ry="21" fill="#7fca66" stroke="#356d31" stroke-width="5"/><path d="M60 76 H92 M76 60 V92" stroke="#5da348" stroke-width="4"/><circle cx="48" cy="75" r="10" fill="#9be085" stroke="#356d31" stroke-width="4"/><circle cx="46" cy="72" r="2.8" fill="#fff"/><circle cx="50" cy="72" r="2.8" fill="#fff"/><path d="M62 92 L53 102 M90 92 L99 102 M62 60 L52 52 M90 60 L100 52" stroke="#356d31" stroke-width="4.5" stroke-linecap="round"/></g>
  <g transform="translate(480 0)"><ellipse cx="76" cy="74" rx="28" ry="21" fill="#7fca66" stroke="#356d31" stroke-width="5"/><path d="M60 74 H92 M76 58 V90" stroke="#5da348" stroke-width="4"/><circle cx="46" cy="72" r="10" fill="#9be085" stroke="#356d31" stroke-width="4"/><circle cx="44" cy="69" r="2.8" fill="#fff"/><circle cx="48" cy="69" r="2.8" fill="#fff"/><path d="M61 89 L49 99 M91 89 L103 99 M62 58 L53 48 M90 58 L98 50" stroke="#356d31" stroke-width="4.5" stroke-linecap="round"/></g>
</svg>
